# xmcd CD database file
#
# Track frame offsets:
#	150
#	15421
#	32544
#	52433
#	69174
#	88691
#	102838
#	128624
#	149720
#	169950
#	188123
#	206511
#	229815
#
# Disc length: 3291 seconds
#
# Revision: 0
# Processed by: cddbd v1.4PL0 Copyright (c) Steve Scherf et al.
# Submitted via: CDex 1.51
#
DISCID=b30cd90d
DTITLE=Chris Cornell - Euphoria Morning
DYEAR=1999
DGENRE=Blues
TTITLE0=Can't Change Me
TTITLE1=Disappearing One
TTITLE2=Flutter Girl
TTITLE3=Wave Goodbye
TTITLE4=When I'm Down
TTITLE5=Sweet Euphoria
TTITLE6=Steel Rain
TTITLE7=Preaching The End Of The World
TTITLE8=Pillow Of Your Bones
TTITLE9=MoonChild
TTITLE10=Mission
TTITLE11=Follow My Way
TTITLE12=Can't Change Me(French Version)
EXTD=YEAR: 1999
EXTT0=
EXTT1=
EXTT2=
EXTT3=
EXTT4=
EXTT5=
EXTT6=
EXTT7=
EXTT8=
EXTT9=
EXTT10=
EXTT11=
EXTT12=
PLAYORDER=
